:FULLY-SPECIFIED
:FORCE-ALL-JOINTS-BE-3DOF
:DEGREES
65
root 9.06501 16.2511 -27.3338 5.20268 -11.5667 0.690013
lfemur -26.9437 7.74388 -23.9282
ltibia 32.8314 0 0
lfoot -10.7266 7.52011 0
ltoes -3.13923 0 0
rfemur -3.70941 -0.132318 15.4725
rtibia 54.1641 0 0
rfoot 6.67712 -9.98525 0
rtoes -4.67389 0 0
lowerback -5.3457 0.406054 -2.49825
upperback -1.99663 0.632192 2.52921
thorax 0.892505 0.326386 4.04478
lowerneck -22.5457 -4.14695 -11.8139
upperneck 17.7501 -4.76871 12.8063
head 9.9746 -1.56378 5.81829
lclavicle 2.13992e-014 5.12993e-016 0
lhumerus -38.6165 -5.72893 88.3826
lradius 21.4392 0 0
lwrist -3.29423 0 0
lhand 1.18816 -17.8923 0
lfingers 7.12502 0 0
lthumb 26.7237 10.1924 0
rclavicle 2.13992e-014 5.12993e-016 0
rhumerus -42.9572 13.4304 -90.851
rradius 37.9591 0 0
rwrist -19.4462 0 0
rhand -29.3705 -25.3501 0
rfingers 7.12502 0 0
rthumb -2.70957 -55.3125 0
66
root 9.07627 16.2528 -27.2193 5.13618 -11.3016 0.78678
lfemur -26.2718 7.54059 -24.098
ltibia 32.5143 0 0
lfoot -10.9868 7.5181 0
ltoes -3.01819 0 0
rfemur -4.66177 -0.0203672 15.5258
rtibia 54.0286 0 0
rfoot 5.7352 -10.0686 0
rtoes -5.1785 0 0
lowerback -5.38876 0.331768 -2.57471
upperback -1.9421 0.538865 2.53366
thorax 0.983773 0.276177 4.08544
lowerneck -22.4954 -4.17257 -11.8691
upperneck 17.8202 -4.78702 12.7606
head 9.99301 -1.58328 5.80993
lclavicle 2.03457e-014 7.69489e-016 0
lhumerus -38.021 -6.17948 88.3592
lradius 21.8489 0 0
lwrist -2.92011 0 0
lhand 0.680197 -18.1277 0
lfingers 7.12502 0 0
lthumb 26.2356 10.0092 0
rclavicle 2.03457e-014 7.69489e-016 0
rhumerus -42.9715 13.4023 -90.7081
rradius 37.9845 0 0
rwrist -19.5229 0 0
rhand -29.3627 -25.2225 0
rfingers 7.12502 0 0
rthumb -2.702 -55.1851 0
67
root 9.08754 16.2544 -27.1048 5.06969 -11.0364 0.883548
lfemur -25.5999 7.33729 -24.2678
ltibia 32.1971 0 0
lfoot -11.247 7.51608 0
ltoes -2.89715 0 0
rfemur -5.61412 0.0915835 15.5792
rtibia 53.8932 0 0
rfoot 4.79327 -10.152 0
rtoes -5.68311 0 0
lowerback -5.43182 0.257482 -2.65117
upperback -1.88757 0.445538 2.53812
thorax 1.07504 0.225969 4.1261
lowerneck -22.445 -4.19819 -11.9244
upperneck 17.8902 -4.80533 12.7149
head 10.0114 -1.60278 5.80157
lclavicle 1.92921e-014 1.02599e-015 0
lhumerus -37.4255 -6.63003 88.3357
lradius 22.2586 0 0
lwrist -2.546 0 0
lhand 0.172233 -18.3632 0
lfingers 7.12502 0 0
lthumb 25.7476 9.82611 0
rclavicle 1.92921e-014 1.02599e-015 0
rhumerus -42.9858 13.3741 -90.5653
rradius 38.01 0 0
rwrist -19.5996 0 0
rhand -29.3548 -25.095 0
rfingers 7.12502 0 0
rthumb -2.69443 -55.0577 0
68
root 9.0988 16.2561 -26.9903 5.00319 -10.7712 0.980315
lfemur -24.9279 7.134 -24.4376
ltibia 31.8799 0 0
lfoot -11.5073 7.51406 0
ltoes -2.77611 0 0
rfemur -6.56648 0.203534 15.6325
rtibia 53.7577 0 0
rfoot 3.85135 -10.2354 0
rtoes -6.18772 0 0
lowerback -5.47488 0.183197 -2.72762
upperback -1.83303 0.35221 2.54257
thorax 1.16631 0.17576 4.16675
lowerneck -22.3946 -4.22381 -11.9796
upperneck 17.9603 -4.82364 12.6692
head 10.0298 -1.62228 5.7932
lclavicle 1.82386e-014 1.28248e-015 0
lhumerus -36.83 -7.08058 88.3123
lradius 22.6683 0 0
lwrist -2.17188 0 0
lhand -0.335731 -18.5986 0
lfingers 7.12502 0 0
lthumb 25.2595 9.64298 0
rclavicle 1.82386e-014 1.28248e-015 0
rhumerus -43.0001 13.346 -90.4224
rradius 38.0354 0 0
rwrist -19.6763 0 0
rhand -29.347 -24.9675 0
rfingers 7.12502 0 0
rthumb -2.68686 -54.9303 0
